<?xml version="1.0" encoding="utf-8"?>
<!-- Generator: Adobe Illustrator 26.4.0, SVG Export Plug-In . SVG Version: 6.00 Build 0)  -->
<svg version="1.1" id="Layer_1" xmlns="http://www.w3.org/2000/svg" xmlns:xlink="http://www.w3.org/1999/xlink" x="0px" y="0px"
	 viewBox="0 0 520 379" style="enable-background:new 0 0 520 379;" xml:space="preserve">
<style type="text/css">
	.st0{clip-path:url(#SVGID_00000073689582908463046980000010985327739659667073_);}
	.st1{fill:#E9E9EA;}
	.st2{fill:#E2D5D8;}
	.st3{fill:#F9B995;}
	.st4{fill:#A4576B;}
	.st5{fill:#231F20;}
	.st6{fill:#412940;}
	.st7{fill:#EFA985;}
	.st8{fill:#FFF9F3;}
	.st9{fill:#251A2C;}
	.st10{fill:#9FA88B;}
	.st11{fill:#B2BE99;}
	.st12{fill:#F1E9EA;}
	.st13{fill:#F0AB9B;}
	.st14{fill:#FFFFFF;stroke:#222222;stroke-linecap:round;stroke-linejoin:round;stroke-miterlimit:10;}
	.st15{fill:#222222;}
	.st16{fill:#E33A11;stroke:#222222;stroke-miterlimit:10;}
	.st17{fill:#FFFFFF;}
	.st18{clip-path:url(#SVGID_00000044898519078367491440000000849415050532293565_);}
	.st19{fill:#E13E26;}
	.st20{fill:url(#SVGID_00000130644326067195150730000010271596397544514449_);}
	.st21{fill:#D37B49;}
	.st22{fill:#E99E56;}
	.st23{fill:#4C4A1E;}
	.st24{fill:#A1732A;}
	.st25{fill:#67953F;}
	.st26{fill:#698A3B;}
	.st27{fill:#557133;}
	.st28{fill:#68A242;}
	.st29{fill:#D09577;}
	.st30{fill:#5C7E38;}
	.st31{fill:#618B3C;}
	.st32{fill:#BAC995;}
	.st33{fill:#511952;}
	.st34{fill:#DC2A26;}
	.st35{fill:#89AE3F;}
	.st36{fill:#4B6730;}
	.st37{fill:#435B2A;}
	.st38{fill:#643011;}
	.st39{fill:#914C21;}
	.st40{fill:#C5CAD6;}
	.st41{fill:#A4ADC0;}
	.st42{fill:#B6BDCC;}
	.st43{fill:#C66428;}
	.st44{fill:#E28126;}
	.st45{fill:#C49270;}
	.st46{fill:#D5A57D;}
	.st47{fill:#E0B386;}
	.st48{fill:#B4D1EE;}
	.st49{fill:#91BDDD;}
	.st50{fill:#678FB4;}
	.st51{fill:#E8D1AB;}
	.st52{fill:#B07A62;}
	.st53{fill:#9F6454;}
	.st54{fill:#1E2C3C;}
	.st55{fill:#828997;}
	.st56{fill:#63707C;}
	.st57{fill:#626D72;}
	.st58{fill:#3A484E;}
	.st59{fill:#637581;stroke:#222222;stroke-width:1.543;stroke-miterlimit:10;}
	
		.st60{fill:none;stroke:url(#SVGID_00000020362804290800065630000005600913359519582397_);stroke-linecap:round;stroke-linejoin:round;}
	.st61{fill:none;}
</style>
<g>
	<defs>
		<rect id="SVGID_1_" y="46" width="519.1" height="332.3"/>
	</defs>
	<clipPath id="SVGID_00000036252567782350659100000013103236272169069233_">
		<use xlink:href="#SVGID_1_"  style="overflow:visible;"/>
	</clipPath>
	<g style="clip-path:url(#SVGID_00000036252567782350659100000013103236272169069233_);">
		<path class="st1" d="M487,265.8c-5-11.9-16.2-21.7-16.6-34.6c-0.7-19.7,16.1-35.8,15.1-55.4c-1.2-22.7-20.4-37.8-40.3-45.1
			c-15.4-5.7-31.1-6.4-47.4-6.5c-12.4-0.1-26.5,1.5-37.5-5.3c-15.1-9.4-15.1-26.2-20.4-40.8c-5.5-15.2-20.1-27.2-36.3-30.7
			c-15.8-3.5-32.6,0.5-46.8,8c-14.2,7.5-26.1,18.2-37.6,29.2c-10,9.5-21.9,19.9-35.8,18.3c-5.8-0.7-11-3.4-16.4-5.5
			C135.5,85.1,98.5,102.8,94,136c-1,7.6-0.1,15.2-0.5,22.8c-0.4,7.6-2.4,15.6-8.1,20.9c-4.1,3.8-9.7,5.8-15.3,7
			c-15.3,3.3-30.8,2.4-45.5,9.8c-8.7,4.3-15.7,12.4-19.3,20.7c-12.7,29.3,0.2,46.2,11,70.6c7.2,16.2,24,62.9,24,62.9h418.5
			c0,0,17-31.2,24.1-45.8c2.5-5.1,4.9-10.3,6.2-15.8C490.8,281.4,490.1,273.1,487,265.8L487,265.8z"/>
		<path class="st2" d="M385.7,349.5c-2.1-23.1-11.8-76.3-28.2-92.7c-16.4-16.4-39.6-26.2-62.8-25.1c-23.2,1.1-45.9,13.5-58.2,33.2
			c-3.4,5.5-6.1,11.5-10,16.7c-3.9,5.2-9.4,9.6-15.8,10.3c-14.1,1.4-25.1-15.4-39.2-14.3c-14.4,1.1-21.5,19.4-35.2,24
			c-7.9,2.6-16.5,0.2-24.8-0.8c-31.9-3.7-64.7,19.1-72.8,50.1L385.7,349.5L385.7,349.5z"/>
		<path class="st3" d="M39.5,344.6l2.8,1.6l3.5-3.4l1.1-10.9l-6-0.8L39.5,344.6z"/>
		<path class="st3" d="M73.5,347.1l6.7-3.8l-1.1-10.7h-6.6L73.5,347.1z"/>
		<path class="st4" d="M59.9,236.4c1,18.1-7,75.6-8.6,96.2H38.4c3-22,4.8-59.7,4.6-79.9c-0.2-15.7,2.2-21.6,3.3-30.3l11,0.1
			L59.9,236.4L59.9,236.4z"/>
		<path class="st4" d="M71.7,222.7c1.2,6.1,5.4,27.7,6.4,43.9c1.4,21.9,2.8,44.6,4.9,66.1H70.4c-2.5-46.2-7.3-66.5-11-86.1
			c-1.6-8.3-2.5-14.3-3-24L71.7,222.7L71.7,222.7z"/>
		<path class="st5" d="M92,350.3c-0.3,0.2-0.6,0.3-0.9,0.3c-5.7,0.3-11.5,0.3-17.2,0c-0.6,0-1-0.5-1.1-1.1c-0.1-1.6-0.1-3.1,0.1-4.7
			c0-0.2,0.3-0.4,0.5-0.3c0.5,0.2,1,0.4,1.6,0.5c0.7,0.1,1.4,0,2-0.4c1-0.8,1.3-2.4,2.8-2.3c0.5,0.1,0.9,0.3,1.3,0.6
			c1.8,1.7,4,3,6.4,3.8c0.9,0.3,1.8,0.5,2.7,0.9C90.7,348,93.3,349.4,92,350.3L92,350.3z"/>
		<path class="st5" d="M58.1,350.3c-0.3,0.2-0.6,0.3-0.9,0.3c-5.7,0.3-11.5,0.3-17.2,0c-0.6,0-1-0.5-1.1-1.1
			c-0.1-1.6-0.1-3.1,0.1-4.7c0-0.2,0.3-0.4,0.5-0.3c0.5,0.2,1,0.4,1.6,0.5c0.7,0.1,1.4,0,2-0.4c1-0.8,1.3-2.4,2.8-2.3
			c0.5,0.1,0.9,0.3,1.3,0.6c1.8,1.7,4,3,6.4,3.8c0.9,0.3,1.8,0.5,2.7,0.9C56.9,348,59.4,349.4,58.1,350.3L58.1,350.3z"/>
		<path class="st6" d="M35.7,186.4c0.5-1.3,1-2.5,1.7-3.6c0.7-1.1,1.5-2.3,1.8-3.6c0.5-2.2-0.5-4.7,0.8-6.6c0.6-0.8,1.5-1.4,1.9-2.4
			c0.3-0.7,0.2-1.6,0.1-2.4c-0.2-2.1-0.1-4.4,0.7-6.4c0.8-2,2.3-3.8,4.3-4.6s4.5-0.5,6.1,0.9c2.9-2.1,6.8-2.7,10.2-1.7
			c3.4,1.1,6.3,3.8,7.5,7.1c0.6,1.6,0.8,3.5,0.1,5c-0.4,0.9-1.1,1.6-1.5,2.4c-1,2.1-0.4,4.7,1,6.5c1.4,1.8,3.5,3,4.8,4.9
			c1.6,2.2,1.9,5.3,0.8,7.9c-1.1,2.5-3.6,4.4-6.3,4.8l-29,0.9C34.2,200.3,33.9,191,35.7,186.4L35.7,186.4z"/>
		<path class="st7" d="M50.3,184.8c3.5-1,1.7-6.6,1.3-10.9l8.4,7.6c-0.2,1-0.2,2.6,1.4,3.2c0.7,0.2-0.3,0.5,0,1.6
			c1.5,9.1-4.4,15.3-5.6,15.9c-1.2,0.6-6.3-3.4-6.4-4.5c-0.2-1.4-0.4-9-1-10.3C47.8,186.1,49.6,186.1,50.3,184.8L50.3,184.8z"/>
		<path class="st3" d="M48.9,172.2L51,175c1.6,2.7,3.2,4.8,6,6.2c0.8,0.4,1.7,0.7,2.5,0.6c1.1-0.1,2.1-1,2.8-1.9
			c2.6-3.2,3.9-7.4,3.6-11.5c-1.3,0.2-2.6,0.1-3.8-0.4c-1.7-0.6-3.1-1.9-4-3.4c0.3,1.4-0.1,3.2-0.9,4.4c-0.9,1.2-2.5,2-4,2
			c-0.8,0-1.7-0.3-2.5-0.1C49.9,171,49.3,171.6,48.9,172.2z"/>
		<path class="st3" d="M52.3,171.8c0-0.6-0.3-1.2-0.8-1.6c-0.5-0.3-1.2-0.3-1.8,0c-0.6,0.3-0.9,1-1,1.7c-0.1,0.9,0.2,1.9,0.9,2.6
			c0.7,0.7,1.5,1.3,2.4,1.2L52.3,171.8L52.3,171.8z"/>
		<path class="st7" d="M60.2,179.6c-0.3,0.1-0.6,0.2-0.8,0.1c-0.2-0.1-0.4-0.3-0.5-0.5l-0.8-1.2c0.2-0.2,0.3-0.3,0.5-0.4
			c0.2-0.1,0.4-0.2,0.6-0.1c0.2,0.1,0.3,0.2,0.5,0.4c0.3,0.2,0.6,0.4,1,0.4c0.2,0,0.8-0.2,0.9,0C61.9,178.6,60.5,179.4,60.2,179.6
			L60.2,179.6z"/>
		<path class="st8" d="M70.6,213l1.1,9.7l-25.4-0.2c0.5-3.4,0.1-22.4-0.9-25.6l-4.8-1.2c0.2-2,0.4-4,0.6-6c0.2-1.4,0.4-2.9,1.4-3.8
			c1-0.9,2.5-1,3.9-1c1.3,0,2.5,0,3.8-0.1c1.3,0.9,2.4,2.1,3.4,3.3c0.8,1.1,1.5,2.3,2.8,2.7c1.7,0.6,3.6-0.7,4.4-2.3
			c0.6-1.2,0.7-2.6,0.6-4c0.9,0,1.8,0,2.7-0.1c1.2,0,2.5,0,3.6,0.5c1.7,0.8,2.5,2.7,3.3,4.4c0.4,1,1.1,2.8,1.5,3.9l-5.2,1.3
			c0.2,0.8,0.2,0.9,0.5,1.7h6.1l0.1,0.2L70.6,213L70.6,213z"/>
		<path class="st3" d="M73.8,196.3l-6.1,0c-0.2-0.8-0.2-0.9-0.5-1.7l5.2-1.3C72.9,194.6,73.3,195.1,73.8,196.3L73.8,196.3z"/>
		<path class="st7" d="M60.8,188.6c-0.8,1.6-2.6,2.9-4.4,2.3c-1.2-0.4-2-1.7-2.8-2.7c-0.9-1.3-2.1-2.4-3.4-3.3
			c3.7-0.1,7.4-0.1,11.1-0.2C61.4,186,61.3,187.4,60.8,188.6L60.8,188.6z"/>
		<path class="st9" d="M84.8,197.6c-1.2,5.2-3.2,10.1-6,14.7c-0.3,0.4-0.7,0.7-1.2,0.7c-7.2,0.1-14.3,0-21.5,0h-2.7
			c-0.9,0-1.6-0.8-1.4-1.7c0.7-3.5,1.5-7,2.2-10.5c0.3-1.2,0.2-3.5,1.5-4.2c1.2-0.7,3.5-0.2,4.8-0.2c1.7,0,18.3,0,23.1,0
			C84.5,196.3,85,197,84.8,197.6L84.8,197.6z"/>
		<path class="st3" d="M81.3,209.8c0.4-0.1,0.7-0.3,0.9-0.6c1.6-1.7,2.4-4.2,2.1-6.5c-0.8-0.3-1.6-0.6-2.4-0.3
			c-0.5,0.2-0.8,0.7-1.1,1.1c-0.7,0.9-2.4,2.6-2.1,3.8C78.9,208.1,80.4,209.9,81.3,209.8L81.3,209.8z"/>
		<path class="st3" d="M52.9,204.2c-2.9,3.1-5.9,7.2-8.7,10.3c-0.9,1-2.1,1.7-3.2,1.6c-0.9,0-1.8-0.4-2-1.3
			c-0.2-0.9-0.3-0.9-0.2-1.9c0.6-5.8,1.2-11.5,1.8-17.3l4.8,1.2c-0.5,3.4-0.9,6.3-1.4,10.1c2.8-2.4,5.5-4.8,8.3-7.3L52.9,204.2
			L52.9,204.2z"/>
		<path class="st3" d="M56.2,194.6l-0.2,1.9c0,0,4.5-3.3,6.1-3.2l0.8,0.2c0.4,0.1,0.8,0.3,1.2,0.6c0,0,0.1,0.1,0.1,0.1
			c0,0.1,0.1,0.4-0.3,0.8c-3.6,3.6-7.9,5.2-10.9,9.2l-0.7-4.4c0.3-0.3,1.1-1.4,1.3-1.8c0.6-1.5,1.4-3,2.5-4.2
			C56.4,193.9,56.2,194.5,56.2,194.6L56.2,194.6z"/>
		<path class="st3" d="M273.9,281.1c-4.6-1.3-8.8-4.2-11.6-8.1c-0.3-0.5-0.7-1-0.5-1.6c0.1-0.5,0.6-0.9,1.1-1.2
			c0.7-0.5,1.5-1.1,2.4-1c0.7,0,1.2,0.4,1.8,0.7c1,0.6,2.1,1.3,3.1,1.9c-0.2-0.5-0.5-0.9-0.5-1.5c0-0.5,0.3-1.1,0.8-1.2
			c0.5-0.1,1,0.3,1.4,0.6c1.3,1.2,2.4,2.7,3.2,4.3c0.3,0.6,1.4,1.2,1.4,1.2L273.9,281.1L273.9,281.1z"/>
		<path class="st3" d="M316.1,273.1c-1.6,5.5-3.1,9.4-7,11.2c-10.4,3-29.7-1.3-35.2-3.2l2.6-5.8c4.4,1.5,15.3,3.7,25.9,2.7
			c0.7-0.1,1.5-0.2,1.8-0.8"/>
		<path class="st3" d="M199.2,328.1l-4.2-6.9l8.3-6.1c0,0,6.2,5.6,4.4,6.4C202.2,324,199.2,328.1,199.2,328.1L199.2,328.1z"/>
		<path class="st5" d="M178.5,321.6c0.2,0.3,0.4,0.6,0.7,0.8c5.6,3.6,11.4,6.9,17.4,9.9c0.6,0.3,1.3,0.1,1.7-0.5
			c1.1-1.6,1.9-3.8,2.6-5.7c-0.8-0.1-1.4,0.2-2.2,0c-0.8-0.3-1.5-0.8-1.8-1.6c-0.6-1.3,0.1-3.2-1.6-3.9c-0.5-0.2-1.1-0.2-1.6-0.1
			c-2.8,0.6-5.8,0.7-8.6,0.2c-1.1-0.2-2.1-0.5-3.2-0.6C181.1,320,177.7,319.9,178.5,321.6L178.5,321.6z"/>
		<path class="st7" d="M310.2,250.8c0.2,0,0.5,0,0.7,0c1.6-0.2,3.1-1,4-2.4c0.7-1.2,0.8-2.6,0.8-4c0-1.1,0.1-2.3,0-3.4
			c0.5-0.3,0.9-0.5,1.3-0.7l1.6,4.4c0,0,0,0,0,0.1c1.3,5.2,4,7.3,4,7.3c0.5,0.7,0.6,3.5,0.1,4.2c-1.3,1.6-2.9,7.2-4.8,8.2
			c-1.9,0.9-8.4,3.7-10.4,4.3C308.5,265.4,310.8,253.2,310.2,250.8L310.2,250.8z"/>
		<path class="st3" d="M302.7,234.1c0.6-1.5,2.9-2.5,4.4-2.7c1.7-0.3,6.2,0.3,7.7,1.3c1.8,1.2,0.1,3.2,0.6,5.3c0.2,1,0.4,2,0.4,3
			c0.1,1.1,0,2.2,0,3.4c-0.1,1.4-0.1,2.8-0.8,4c-0.8,1.4-2.4,2.2-4,2.4c-0.2,0-0.5,0-0.7,0c-2.1-0.1-4.2-1.3-5.6-3
			c-1.5-1.9-3.8-7.4-4-9.8C300.5,236.1,302,236,302.7,234.1L302.7,234.1z"/>
		<path class="st5" d="M292.2,230.5c0.8-1.8,2.6-3.1,4.6-3.1c1.8,0,3.5,1,5.4,1.1c2.7,0.1,5.1-2,7.8-2.3c0.6-0.1,1.3-0.1,1.9,0.2
			c0.6,0.3,1.1,0.8,1.2,1.4c1.6-1.2,4.2-0.7,6.1,0.2c1.8,1,4,8.8,0.3,14.7c-0.6,0.9-0.7,2.2-0.7,2.2l0,0c0,0,0,0,0-0.1l-1.6-4.4
			l-1.6-4.3c-0.4-0.7-1.5,0.1-1.4,1.1c0.3,2.9-0.9,3.3-1.7,3.4c-1,0.1-0.5-1-4.1-3.7c-2.9-2.1-6.5,1.3-10.1,1.5
			c-2,0.1-4-0.7-5.2-2.3C291.8,234.5,291.4,232.3,292.2,230.5L292.2,230.5z"/>
		<path class="st3" d="M316,235c1.2,0.1,2.2,1.1,2.5,2.3c0.3,1.2-0.1,2.4-0.8,3.4c-0.3,0.5-0.8,0.9-1.3,1.1c-0.5,0.2-1.2,0.3-1.7,0
			l-0.9-3.9c-0.3-1.3,0.5-2.6,1.8-2.8C315.6,235,315.8,234.9,316,235z"/>
		<path class="st7" d="M314.9,237.2c0.1-0.3-0.1,0,0.1-0.4c0.2-0.3,0.6-0.5,1-0.5s0.7,0.5,0.6,0.8c-0.1,0.3-0.4,0.5-0.5,0.8
			c-0.1,0.2-0.1,0.5,0,0.7c0.3,1.1-0.6,1.5-0.8,1.9L314.9,237.2L314.9,237.2z"/>
		<path class="st3" d="M242.4,330.7l-7.4-4l4.4-9.7c0,0,8.5,1.8,7.3,3.5C243,325.6,242.4,330.7,242.4,330.7z"/>
		<path class="st5" d="M220.2,335.5c0.3,0.2,0.7,0.3,1.1,0.4c7,0.4,14,0.3,21-0.1c0.7,0,1.3-0.6,1.3-1.3c0.2-2-0.3-4.4-0.6-6.4
			c-0.8,0.3-1.2,1-2,1.1c-0.8,0.1-1.8,0-2.4-0.5c-1.2-0.9-1.6-2.9-3.4-2.7c-0.6,0.1-1.1,0.4-1.5,0.8c-2.2,2-4.9,3.6-7.7,4.5
			c-1.1,0.4-2.2,0.6-3.2,1.1C221.7,332.7,218.6,334.4,220.2,335.5z"/>
		<path class="st10" d="M252.6,282.1c-7.9,13-12.7,23.4-19.1,37.1c0,0,11.3,6.7,11.7,5.8c0.5-1.1,4.1-7.4,5.1-9.4
			c2.4-5.1,8.2-13.1,10.6-17L252.6,282.1L252.6,282.1z"/>
		<path class="st6" d="M256.9,270.8l-2.7,0c-0.3,0-0.7-0.3-0.7-0.6l-0.3-35.4c0-0.3,0-0.6,0.2-0.6l0.5,0c1.8,0,1.9,31.3,1.9,33.1
			l1.8,2.9C257.5,270.5,257.2,270.8,256.9,270.8L256.9,270.8z"/>
		<path class="st6" d="M285.3,288.5l1.3-2.3c0.2-0.3,0.1-0.7-0.2-0.9l-30.6-18c-0.3-0.2-0.7-0.1-0.9,0.2l-1.3,2.3
			c-0.2,0.3-0.1,0.7,0.2,0.9l30.6,18C284.7,288.9,285.1,288.8,285.3,288.5z"/>
		<path class="st11" d="M290.3,294.8c-11.1-7.9-24-17.5-32.7-15.7c-7.3,1.5-16.7,6.4-24.5,10.8c-10.9,6.1-22.6,13.4-33.3,20.2
			l6.4,13.9c13.5-6.8,26.7-13.4,40.3-20.2c2-1,8-3.6,11.7-4.9c1.4-0.5,3,0.1,3.7,1.4c3.9,7.4,17.7,30.9,33.1,30.9
			c11.1,0,14-2.6,19-9.1"/>
		<path class="st8" d="M314,322c3.6-3.5,9.4-17.6,11.3-23.9c3-9.7,6.1-25.9,2.3-40.6c-1-3.7-4.4-6.1-8.1-6c-4.9,0.1-10.6,3.7-12.8,8
			c-3.3,6.3-6,20.8-10.5,27.6c-3.9,6-3.9,6.9-5.8,7.9"/>
		<path class="st3" d="M271.1,287.3c-4.7-1.9-9-5.5-11.4-10c-0.3-0.6-0.6-1.2-0.4-1.8c0.2-0.6,0.7-0.9,1.3-1.2
			c0.8-0.5,1.8-1,2.7-0.8c0.7,0.1,1.3,0.6,1.8,1c1,0.8,2.1,1.6,3.1,2.4c-0.2-0.5-0.4-1.1-0.3-1.6c0.1-0.6,0.4-1.1,1-1.2
			c0.6-0.1,1,0.4,1.4,0.8c1.2,1.5,2.2,3.2,2.9,5c0.3,0.7,1.3,1.5,1.3,1.5L271.1,287.3L271.1,287.3z"/>
		<path class="st3" d="M274.5,281.4c4.5,2.1,15.9,5.7,27.3,5.9c0.8-0.1,1.6-0.1,2-0.6c7-8.7,3.3-11,6.1-26c0.5-2.8,2.8-4.9,5.6-5.3
			c4.4-0.6,8.5,3.3,7.5,7.6c-1.2,5.7-3.5,15.1-5.9,20.7c-2.4,5.7-4.4,9.6-8.8,11.1c-11.4,2-31.6-4.9-37.2-7.6L274.5,281.4
			L274.5,281.4z"/>
		<path class="st8" d="M321.4,278c0,0-9.5,2.1-14.2-2.7c0,0,0.3-4.6-0.1-8.5c-0.3-3.2,3.7-11.6,6.9-12.2c0.1,0,0.1,0,0.2,0
			c4.9-1,9.5,2.5,9.9,7.5C324.3,266.1,322,272.5,321.4,278z"/>
		<path class="st12" d="M212.2,350.1c3.3-12.2,12-23.9,23.5-30.1c11.5-6.2,25.6-7.7,38.2-4.1c8.7,2.5,17,7.4,26.1,7.1
			c10.8-0.4,19.8-8.1,26.2-16.4c6.5-8.3,11.5-17.8,19.7-24.6c13.3-11.1,33.1-13,49.8-7.5c16.6,5.5,30.2,17.5,40.4,31.3
			c10.1,13.8,17.1,28.8,24,44.3L212.2,350.1L212.2,350.1z"/>
		<g id="chat-bubble-2" style="transform-origin: 75.9217px 190.023px">
			<path class="st13" d="M86.7,182.3c0-1.7-1.4-3.2-3.2-3.2h-9.4v8.7c0,1.3,1.1,2.4,2.4,2.4h2.6c0.1,1,0.1,2.7-1,4.1
				c0,0,6.3-0.6,7.9-4.1h0.5L86.7,182.3z"/>
			<path class="st14" d="M101.3,172.7H77.8c-1.3,0-2.4,1.1-2.4,2.4V186c0,1.3,1.1,2.4,2.4,2.4h2.6c0.1,1,0.1,2.7-1,4.1
				c0,0,6.3-0.6,7.9-4.1h13.9c1.3,0,2.4-1.1,2.4-2.4v-10.9C103.7,173.8,102.6,172.7,101.3,172.7z"/>
			<path class="st15" d="M94,180.7c0,1.2,1,2.2,2.2,2.2c1.3,0,2.2-1,2.2-2.2c0-1.2-1-2.2-2.2-2.2C95,178.5,94,179.5,94,180.7z"/>
			<path class="st15" d="M87.3,180.7c0,1.2,1,2.2,2.2,2.2c1.3,0,2.2-1,2.2-2.2c0-1.2-1-2.2-2.2-2.2
				C88.3,178.5,87.3,179.5,87.3,180.7z"/>
			<path class="st15" d="M80.6,180.7c0,1.2,1,2.2,2.2,2.2c1.2,0,2.2-1,2.2-2.2c0-1.2-1-2.2-2.2-2.2
				C81.6,178.5,80.6,179.5,80.6,180.7z"/>
		</g>
		<g id="chat-bubble-3" style="transform-origin: 259.5325px 241.72px">
			<path class="st16" d="M283,222.5h-21.7c-1.2,0-2.2,1-2.2,2.2v10.1c0,1.2,1,2.2,2.2,2.2h2.4c0.1,0.9,0.1,2.5-0.9,3.8
				c0,0,5.8-0.5,7.3-3.8H283c1.2,0,2.2-1,2.2-2.2v-10.1C285.3,223.4,284.3,222.5,283,222.5z"/>
			<path class="st17" d="M281.9,226.6h-19.5c-0.3,0-0.5-0.2-0.5-0.5c0-0.3,0.2-0.5,0.5-0.5h19.5c0.3,0,0.5,0.2,0.5,0.5
				C282.4,226.4,282.2,226.6,281.9,226.6z"/>
			<path class="st17" d="M281.9,229.1h-19.5c-0.3,0-0.5-0.2-0.5-0.5s0.2-0.5,0.5-0.5h19.5c0.3,0,0.5,0.2,0.5,0.5
				S282.2,229.1,281.9,229.1z"/>
			<path class="st17" d="M281.9,231.4h-19.5c-0.3,0-0.5-0.2-0.5-0.5c0-0.3,0.2-0.5,0.5-0.5h19.5c0.3,0,0.5,0.2,0.5,0.5
				C282.4,231.2,282.2,231.4,281.9,231.4z"/>
			<path class="st17" d="M281.9,233.8h-19.5c-0.3,0-0.5-0.2-0.5-0.5c0-0.3,0.2-0.5,0.5-0.5h19.5c0.3,0,0.5,0.2,0.5,0.5
				C282.4,233.6,282.2,233.8,281.9,233.8z"/>
		</g>
		<g>
			<defs>
				<rect id="SVGID_00000028322737795571883480000004851703826772136360_" x="88.2" y="228.1" width="65.7" height="65.7"/>
			</defs>
			<clipPath id="SVGID_00000020395597834459988730000011870218103298532996_">
				<use xlink:href="#SVGID_00000028322737795571883480000004851703826772136360_"  style="overflow:visible;"/>
			</clipPath>
			<g style="clip-path:url(#SVGID_00000020395597834459988730000011870218103298532996_);">
				<path class="st5" d="M119.5,293.8c-17.4-0.1-31.4-14.3-31.3-31.6s14.4-31.3,31.8-31.1c17.4,0.1,31.4,14.3,31.3,31.6
					C151.2,280,137,293.9,119.5,293.8L119.5,293.8z"/>
				<path class="st17" d="M121.5,291.5c-17.4-0.1-31.4-14.3-31.3-31.6c0.1-17.3,14.4-31.3,31.8-31.1c17.4,0.1,31.4,14.3,31.3,31.6
					C153.1,277.6,138.9,291.6,121.5,291.5z"/>
				<path class="st5" d="M121.7,292.1c-0.1,0-0.2,0-0.2,0c-17.8-0.1-32.1-14.6-32-32.2c0.1-17.6,14.7-31.9,32.4-31.8
					c17.7,0.1,32.1,14.6,32,32.2c-0.1,8.5-3.5,16.6-9.6,22.6C138.3,288.8,130.2,292.1,121.7,292.1z M121.7,229.4
					c-16.9,0-30.8,13.6-30.9,30.5c-0.1,16.9,13.6,30.8,30.7,31c0.1,0,0.2,0,0.2,0c8.2,0,15.9-3.1,21.7-8.8
					c5.9-5.8,9.2-13.4,9.2-21.7c0.1-16.9-13.6-30.8-30.7-31C121.9,229.4,121.8,229.4,121.7,229.4L121.7,229.4z"/>
				<path class="st19" d="M137.6,257.4l-13.2,0V244c0-1.4-1.2-2.6-2.6-2.6s-2.6,1.2-2.6,2.6v13.3l-13.7,0c-1.4,0-2.6,1.2-2.6,2.6
					c0,1.4,1.2,2.6,2.6,2.6l13.7,0V276c0,1.4,1.2,2.6,2.6,2.6c1.4,0,2.6-1.2,2.6-2.6v-13.5l13.2,0c1.4,0,2.6-1.2,2.6-2.6
					C140.2,258.5,139,257.3,137.6,257.4L137.6,257.4z"/>
			</g>
		</g>
	</g>
</g>
<linearGradient id="SVGID_00000054950299762892885810000001414614388030921385_" gradientUnits="userSpaceOnUse" x1="98.2634" y1="252.7588" x2="278.1308" y2="252.7588" gradientTransform="matrix(1 0 0 -1 0 379.89)">
	<stop  offset="0" style="stop-color:#FF3408"/>
	<stop  offset="0.54" style="stop-color:#F6352E"/>
	<stop  offset="1" style="stop-color:#ED3652"/>
</linearGradient>
<path style="fill:url(#SVGID_00000054950299762892885810000001414614388030921385_);" d="M251.8,190.7c35.1-35.1,35.1-92,0-127.1
	c-35.1-35.1-92.1-35.1-127.2,0c-35.1,35.1-35.1,92,0,127.1C159.7,225.8,216.7,225.8,251.8,190.7z"/>
<path class="st17" d="M132.9,138v-6.4l6.8-2.6l-3.5,2.9c0.9-0.8,1.4-1.7,1.7-2.9c0.3-1.2,0.4-2.5,0.4-3.9c0-1.3-0.1-2.8-0.3-4.3
	c-0.2-1.5-0.4-3.2-0.6-4.9l1.7,2.2h-6.3v-6.7l5.1-1l-0.9,1.9c-0.1-1.1-0.2-2.3-0.3-3.5c-0.1-1.2-0.1-2.2-0.1-3.1
	c0-3.7,0.7-6.6,2.1-8.6c1.4-2.1,3.4-3.5,5.8-4.4c2.4-0.9,5.1-1.3,8.1-1.3c2.2,0,4.5,0.2,7,0.6c2.4,0.4,4.9,0.9,7.6,1.7l-0.8,12h-7.7
	l-1.6-6l1,1.6c-0.7-0.2-1.5-0.4-2.2-0.5c-0.7-0.1-1.3-0.2-1.9-0.2c-1.3,0-2.3,0.4-3.1,1.2c-0.8,0.7-1.2,2-1.2,3.9
	c0,0.7,0,1.6,0.1,2.8c0.1,1.2,0.2,2.3,0.3,3.3l-2-1.5h11.2v7.7h-10.5l1.7-2.8c0.1,0.9,0.2,1.8,0.3,2.7c0.1,0.9,0.1,1.7,0.1,2.6
	c0,1.7-0.3,3.3-0.8,4.9c-0.5,1.5-1.5,3-3,4.5l-1.4-1.3h14.2l-1.7,2l1.7-7.4h7.7V138H132.9z M172.6,138v-10.9
	c4.6-3.4,8.3-6.2,11.2-8.6c2.9-2.3,4.9-4.5,6.3-6.3s2-3.8,2-5.7c0-1.8-0.5-3.1-1.5-4c-1-0.9-2.3-1.3-3.9-1.3c-0.8,0-1.7,0.1-2.6,0.3
	c-0.9,0.2-1.8,0.5-2.8,0.8l1.3-2l-1.3,6.6h-7.7L172.7,94c2.9-0.8,5.7-1.3,8.4-1.7c2.7-0.4,5.3-0.6,7.7-0.6c3.3,0,6.3,0.4,8.8,1.3
	c2.6,0.9,4.5,2.2,6,4.2c1.5,1.9,2.2,4.5,2.2,7.6c0,3.3-0.8,6.3-2.3,9.1c-1.5,2.7-3.6,5.4-6.3,7.9c-2.7,2.5-5.9,5.1-9.6,7.7l0.1-1.4
	h18.9V138H172.6z M228,139c-4.4,0-8-0.9-10.7-2.6c-2.7-1.7-4.6-4.4-5.8-7.8c-1.2-3.5-1.7-7.7-1.7-12.9c0-5.2,0.6-9.7,1.8-13.2
	c1.2-3.6,3.2-6.3,6-8.1c2.8-1.8,6.5-2.8,11.1-2.8c4.7,0,8.4,0.9,11,2.6c2.6,1.7,4.4,4.4,5.4,7.8c1,3.4,1.5,7.6,1.5,12.7
	c0,5.2-0.6,9.7-1.9,13.3c-1.2,3.6-3.2,6.3-6,8.2C236.1,138,232.5,139,228,139z M228.2,129.2c1.5,0,2.6-0.5,3.3-1.5s1.1-2.6,1.3-4.7
	c0.2-2.1,0.3-4.8,0.3-7.9c0-3.1-0.1-5.6-0.3-7.6c-0.2-2-0.6-3.5-1.3-4.5c-0.7-1-1.8-1.5-3.3-1.5c-1.5,0-2.6,0.5-3.3,1.6
	c-0.7,1-1.2,2.6-1.4,4.6c-0.2,2-0.3,4.6-0.3,7.7c0,3.1,0.1,5.6,0.3,7.7c0.2,2,0.7,3.6,1.3,4.6C225.6,128.7,226.7,129.2,228.2,129.2z
	"/>
<path class="st21" d="M517.7,145.1c-7-3.6-24,10.7-29.8,20.7c-0.5,2.7-0.2,5.4-5.5,10.2c-7.3,6.7-11.2,17.7-13,22
	c0.4,1.6-1.8,6.3-5.6,10.3c-4.8,5-9.5,14.9-12.2,23.3c-0.4,3.2-1.8,6.8-4.7,11.3c-2.2,3.5-2.9,9.2-4.2,15.4
	c-0.1,1.9,0.3,4.5-1.3,7.9c-3,6.2,0.1,15.1,2.6,16.5c6.4,3.6,12.3-4.5,18.8-15.1c1.8-2.9,45.8-89.1,50-100.3
	C517.2,155.7,523.5,148.1,517.7,145.1z"/>
<path class="st22" d="M517.7,145.1c-7-3.6-24,10.7-29.8,20.7c2.9-1.8,10.9-6.1,13.1-6.1c6.8-0.1,5.4,4.7-1.8,7.7
	c-4.2,1.8-11.6,3.8-16.8,8.6c-7.3,6.7-11.2,17.7-13,22c4-3,9.5-5.8,14.4-5.1c5.6,0.9,3.2,7-2.9,7.9c-7.4,1-13.3,3.5-17,7.5
	c-4.8,5-9.5,14.9-12.2,23.3c5.4-4.7,9.5-7.5,15.1-7c5.4,0.5,3.8,6.7-3.9,8.5c-6.1,1.4-13,5.3-15.8,9.8c-2.2,3.5-2.9,9.2-4.2,15.4
	c2.5-2.4,6-5.4,10.3-6.7c4.9-1.5,7.7,3.7,1.4,6.2c-8.7,3.4-11.5,5-13.1,8.4c-3,6.2,0.1,15.1,2.6,16.5c6.4,3.6,12.3-4.5,18.8-15.1
	c1.8-2.9,45.8-89.1,50-100.3C517.2,155.7,523.5,148.1,517.7,145.1L517.7,145.1z"/>
<path class="st23" d="M439.7,129.6c0.2-1.2,1-6.3,1.2-7.3c0.7,0.1,1.8-0.4,2-1.7c0.2-1.3,0.4-2.6,0.6-4c0.3-1.6-0.9-3.2-2.5-3.5
	c-1.3-0.2-3.3-0.5-4.7-0.7c-1.3-0.2-3.3-0.5-4.7-0.7c-1.6-0.3-3.2,0.9-3.5,2.5c-0.2,1.3-0.4,2.6-0.6,4c-0.2,1.3,0.7,2.1,1.4,2.2
	c-0.1,0.8-0.9,5.9-1.2,7.3c-1.6,9.7-4.6,9.6-7.9,10.8c-3.2,1.1-6.7,3.5-9,18.1c-2.7,16.9-7.5,47-7.8,48.6c-0.8,5.1,1.3,7.7,5.4,8.3
	c3.5,0.6,9.2,1.5,11.4,1.8c2.2,0.4,7.9,1.3,11.4,1.8c4,0.6,6.9-1.2,7.7-6.2c0.3-1.7,5.1-31.7,7.8-48.6
	C451.4,133,436.6,149.1,439.7,129.6L439.7,129.6z"/>
<path class="st24" d="M439.7,129.6c0.2-1.2,1-6.3,1.2-7.3c0.7,0.1,1.8-0.4,2-1.7c0.2-1.3,0.4-2.6,0.6-4c0.3-1.6-0.9-3.2-2.5-3.5
	c-1.3-0.2-8-1.3-9.4-1.5c-1.6-0.3-3.2,0.9-3.5,2.5c-0.2,1.3-0.4,2.6-0.6,4c-0.2,1.3,0.7,2.1,1.4,2.2c-0.1,0.8-0.9,5.9-1.2,7.3
	C431.4,128.2,436.2,129,439.7,129.6L439.7,129.6z"/>
<path class="st25" d="M314.5,175.9c-0.3-1.7-1.6-5.2-0.8-5.6c-0.9-0.5-5-2.3-6-2.3c-0.7,0-1,0.1-1,1c0,1,0.9,4.2,1.3,5.8
	C309,174.7,313.2,175.4,314.5,175.9L314.5,175.9z"/>
<path class="st26" d="M317.9,182.6c-1.1-2.1-1.5-2-3.5-7.3c-1.1-0.5-5.4-1.1-6.5-1.2c-0.7,0-0.8,0-0.7,0.9c0.1,1.2,1.5,4.5,3.4,5.6
	C312.8,181.9,315.5,181.3,317.9,182.6z"/>
<path class="st27" d="M319.4,173.9c-1.1-2.1-2.2-3.2-5.7-4.4c-0.6-0.2-1,0-0.9,0.9c0.4,5.7,3.5,10.6,5.3,12.9c3,4,16.2,40,19.2,54
	c2.5,1.4,6.2-0.5,7.2-2.1c-6.1-20.6-15.5-42.1-23.7-56C320,177.9,320.3,175.6,319.4,173.9L319.4,173.9z"/>
<path class="st25" d="M317.4,161.5c0-1.7-0.1-4.5-0.2-5.7c-0.8-0.7-3.6-2.4-4.7-2.6c-0.6-0.1-0.9,0-1.2,0.8
	c-0.3,1.1-0.4,3.3,0.3,5.4C312.7,159.6,316.2,160.8,317.4,161.5L317.4,161.5z"/>
<path class="st26" d="M319.8,170.4c-1.5-2.6-1.4-5-2.4-9.2c-1-0.7-4.8-2-5.8-2.2c-0.7-0.1-0.8-0.1-0.9,0.8c-0.1,1.2,0.4,4.6,2,6.2
	C314,167.1,317.7,168.8,319.8,170.4z"/>
<path class="st27" d="M322.9,161c-0.8-1.8-2.3-4.6-5-6c-0.6-0.3-0.9-0.3-0.9,0.6c-0.5,5.7,1.2,11.9,2.4,14.5
	c2.8,6.3,22.1,58.2,26,68.3c2,1.1,7.9-0.9,8.9-4.1c-5.1-11-30-65.5-30.7-67.9C323.2,165.1,323.7,162.8,322.9,161L322.9,161z"/>
<path class="st28" d="M330.9,163c-1.1-1.3-3-5-3.9-4.8c0.2-1,1.6-3.5,2.2-4.3c0.4-0.5,0.7-0.7,1.4-0.1c0.8,0.7,2.4,2.6,3.3,4.7
	C333.3,159.3,331.4,161.7,330.9,163L330.9,163z"/>
<path class="st25" d="M333.3,171.2c-0.8-2.2-0.5-3.6-3-8.6c0.4-1.2,2.7-4,3.4-4.8c0.4-0.5,0.5-0.6,1.1,0c0.9,0.9,2.4,4.1,2,6.3
	C336.4,166.6,334,168.6,333.3,171.2z"/>
<path class="st26" d="M333.5,171.2c-0.6-2.8-1.9-9.7-5.9-13.7c-0.6-0.6-1.1-0.3-1.5,0.2c-0.6,0.9-2,4.8-1.1,7.8
	c0.5,1.9,2.6,4,3.2,5.3c1,2.4,7.8,31.5,25.4,60.3c2.5,0.4,7.1-1.1,7.4-3.8C343.6,202.5,334,173.4,333.5,171.2L333.5,171.2z"/>
<path class="st29" d="M345.5,200.5c1.9-1.7,0.1-3.3-1-2.4c-6,4.6-10.6,6.7-17.6,7.8c-2.3,0.3-1.5,3.7,1.3,3.1
	C333.8,207.9,338.7,206.6,345.5,200.5z"/>
<path class="st30" d="M344.9,216.6c0.1,0.8,0.4,2.1-0.1,3c0.9-0.7,1.7-1.7,2-3c0,1.8,0.7,3,1.7,3.7c-0.5-1.2,0-2.5,0.1-4
	c0.5,0.8,1.2,1.8,1,2.8c0.6-0.9,0.8-2,1-3.1c0.9,1,1.2,2,1.1,3.4c0.7-0.7,1.2-2,1.2-3.6c1,0.6,1.4,1.3,1.5,2c0.9-0.9,1-3-0.4-3.7
	c-2.1,0.4-7.5,1.5-10.2,0.7c-1,0.5-1.4,2.2-0.4,3.4C343.6,217.7,343.6,217.1,344.9,216.6L344.9,216.6z"/>
<path class="st25" d="M347.3,109.3c-1.1-1.5-6.3-0.1-6.9,1.4c0.1,1.3,2.4,32.5,2.5,33.6c2.2,7.5,4.4,17,6,23.3
	c0.6-3,1.8-10.1,2.6-13.4C351.7,138.7,347.5,109.8,347.3,109.3L347.3,109.3z"/>
<path class="st31" d="M352.8,117.8c-0.7,14-3.3,34.9-4.1,44.6c2.1,5.2,4.8,15.5,6.1,20.2c1.3-17,4.4-45.1,5.9-63.5
	C360.1,117.2,354,116.6,352.8,117.8L352.8,117.8z"/>
<path class="st30" d="M329,121.3c0.2,1.2,10,35.9,11.8,59.1c0.2,2.8,0.6,13.6,0.9,15.9c2,1.7,7.7,5.6,10.4,3
	c3-2.9,2.9-12.6,2.7-16.8c-0.2-2.6-2.1-11.3-3-13.7c-4.7-13.1-14.1-46.2-15.8-50.4C334.8,117.3,329.4,119.5,329,121.3L329,121.3z"/>
<path class="st32" d="M353.9,191.3c-0.3-3.7-0.5-5-1.2-9c-0.3,4.2-0.2,6.9-0.7,10.4c-0.9-5.3-1.4-14.8-2.3-20.1
	c-0.4,5.9,0,14.3-0.9,19.3c-0.9-5.3-1.5-17.2-3.4-24.4c0.6,9.5,0.9,23.8,0.2,29.7c-0.4-4.7-1.4-18.6-2.7-24.5
	c-0.1,7.5,0.3,14-0.3,20.6c-0.5-3-1.2-9.7-1.8-12.7c0.3,10.5,0.1,29.6,0.1,30.7c0.1,2.5,1.6,3.9,2.6,4.2c1.8,0.5,9.1,0.1,12.1-1.6
	c1.1-0.6,2.1-2,1.6-4.3c-0.2-1.3-1.6-15.4-2.4-26.9C354.6,185.3,354.4,188.1,353.9,191.3z"/>
<path class="st33" d="M383.8,195.6c-3.7-4.6-9.3-13.8-10.4-25c-5.4-10.1-15.2-9.8-19.5-0.3c-4.1,13-6.2,36.5,3.3,46.1
	C374.7,233.9,395.4,210.2,383.8,195.6L383.8,195.6z M372.7,217.9c-0.8,1.3-3.1,1.8-4.1,1.3c1-0.4,2.7-2.4,3.5-4.5
	c0.5,1.6,5,2.5,5.9,2.4C377.3,218,374.8,219.1,372.7,217.9L372.7,217.9z"/>
<path class="st25" d="M374,165.6c-0.9-4.9-4.9-6.5-9.1-7.2c-0.1-1.3,0.9-3.7,2.5-4.5c0.7-0.4,2.5,0.1,3.1-0.3c1.5-1,1.1-2.4,0.8-3.2
	c-0.2-0.4-1.3-2.4-3.2-1.9c-0.5,0.1-2.5,1.3-3.9,3c-1.6,2.1-2.1,4.8-1.8,6.7c-3.4,0.1-6.4,1.7-8.1,5.5c-2,4.5-1,7.4-3.1,9.3
	c2.7,0,6.2-5.1,7.4-6.6c1.1,2,2.1,5,2.2,6.5c2.9-1.5,5-4.4,7.3-7.1c0.3,2.9,4.7,7.6,8.2,6.3C373.5,170.3,374.3,167.2,374,165.6
	L374,165.6z"/>
<path class="st34" d="M352.1,186.1c-5.4,0.8-8.3,5-6.9,9.1c0.6,1.8,4.7,12.5,9.6,17.4c3.2,3.2,8.1,4.6,12.6,5.6
	c1.1,0.2,1.1-0.4,0.2-1.5c-0.6-0.7-2-4.5-2.7-5.4c-3.7-5.1-4.8-9.4-4.8-11.9c0-4.4,1.6-6.7,0.4-10.2
	C360.1,187.9,356.8,185.5,352.1,186.1L352.1,186.1z"/>
<path class="st35" d="M351.9,177.6c-0.4,0.1-1.7,0.8-2.4,2.4c-1.4,3.4,2,7.2,1.9,7.8c-0.3,0.3-1.3,0.8-2,0.3c0.3,1-0.3,2-1.7,2.6
	c1.7-0.3,2.3,0.7,2,1.9c1-1.1,3-1.1,4.3-0.1c-0.3-1.7,1.9-3,3.4-3.4c-1.3-0.3-2-1-1.7-2c-1,0.3-1.7,0.5-2.4,0.3
	c-0.4-0.4-0.9-3.1-0.8-4.9c0.7-0.1,1.2-0.2,1.6-0.6c1.2-0.9,0.9-2.4,0.7-3C354.8,178.6,353.6,177.1,351.9,177.6L351.9,177.6z"/>
<path class="st26" d="M387.6,137.1c1.4-1.5,2.7-3.4,4.4-4.1c-1.9-6.4,1.1-24.4,6.3-30.7c-10.1,6-16,26.1-16.2,31.5
	C384.7,134.7,386.5,136,387.6,137.1z"/>
<path class="st27" d="M382.6,142.4c-1.9-6.7-8.6-20.5-17.4-23.5c11.5,2.5,16.9,8.9,23.1,17.6C387,137.8,385.1,140.1,382.6,142.4
	L382.6,142.4z"/>
<path class="st27" d="M388,144.3c2.2-2.3,4.2-3.5,6.5-4.3c0.5-3,4.8-18.3,15.9-24.7c-13,3.8-23.1,18.3-26.4,26
	C385.3,141.9,386.9,143.2,388,144.3z"/>
<path class="st36" d="M385.8,152.2c-3.3-6.2-18.5-18.6-27.7-19.8c10-2.3,22.9,2.9,32.1,12.8C389.2,146.9,387.9,149.5,385.8,152.2z"
	/>
<path class="st36" d="M387,150.2c2.5-2,6-5.4,8.4-5.8c1-2.9,10.5-13.9,19-14.6c-10.3-2.4-26.2,7.9-30.6,14.9
	C385,145.5,386,148.9,387,150.2L387,150.2z"/>
<path class="st37" d="M396,154.9c0.7-4.2,6.7-13.9,18.7-15.5c-8.1-1.7-24.4,0.2-30.7,14.8C386.6,153.7,391.5,153.7,396,154.9
	L396,154.9z"/>
<path class="st37" d="M381,155.9c-1.7-3.6-7.1-12.4-19-10.4c8.7-4.9,22.6-3.6,27.5,8.6C387.1,155,383.6,155,381,155.9L381,155.9z"/>
<path class="st38" d="M391.2,206c11.2-0.9,19.3-13.4,18-27.9c-1.2-14.5-11.3-25.4-22.5-24.5c-11.2,0.9-19.3,13.4-18,27.9
	C370,196,380,207,391.2,206z"/>
<path class="st39" d="M376.9,187.6c-1.6-2-3.6-4.9-5.8-6.6c-0.9-0.8-3.6-0.7-3.6,2.4c0,4.2,1.5,7.4,2.7,10c0.6,1.3,2.2,1.6,3.3,0.7
	c1-0.9,2.1-1.8,3.1-2.7C377.4,190.7,377.9,188.9,376.9,187.6L376.9,187.6z"/>
<path class="st39" d="M391.9,207.4c0.6-0.1,1.2-0.1,1.8-0.2c1.5-0.2,2-2.2,0.7-3c-1.1-0.8-2.2-1.6-3.3-2.4c-0.7-0.5-1.6-0.5-2.2,0.1
	c-0.9,0.9-1.8,1.7-2.6,2.5c-1,1-0.5,2.7,0.9,2.9C388.7,207.4,390.3,207.5,391.9,207.4L391.9,207.4z"/>
<path class="st39" d="M378.5,191.7c-1.3,1.2-3.6,2.9-4.8,4.5c-0.7,0.9,0,3.2,0.8,4c1.7,2,3.6,3.6,5.7,4.9c0.8,0.5,2.4,0.1,3.1-0.5
	c1.1-1,2.3-2.3,3.5-3.4c0.9-0.8,0.8-2.2,0.1-3.1c-1.1-1.4-3.8-4.1-5.7-6C380,190.8,379.3,190.9,378.5,191.7z"/>
<path class="st39" d="M387.3,177.7c-1.6-1.9-3.9-4.8-5.4-6.8c-0.7-1-1.3-1.1-2.1-0.2c-1.9,2.2-4.1,5-6.3,7c-0.7,0.7-1.1,1.7-0.5,2.4
	c1.6,2,3.8,4.4,5.5,6.3c0.7,0.8,2,0.9,2.7,0.1c2.1-2.1,4-4.3,5.9-6.5C387.9,179.4,387.9,178.4,387.3,177.7L387.3,177.7z"/>
<path class="st39" d="M397.6,188.3c-2.1-1.8-4.9-4.6-6.8-6.7c-0.6-0.6-1.6-0.6-2.1,0.1c-2,2.5-4.1,4.9-6.3,7.2
	c-0.5,0.5-0.5,1.4,0,1.9c1.9,2.1,4.6,5,6.6,6.9c0.5,0.5,1.4,0.5,1.9,0c2.4-2.4,4.7-4.8,6.8-7.4C398.3,189.7,398.2,188.8,397.6,188.3
	L397.6,188.3z"/>
<path class="st39" d="M393.7,201.6c1.5,1.2,2,1.6,3.7,2.6c0.7,0.4,2.2,0.9,2.8,0.5c2.8-2,5.1-4.6,6.9-7.8c0.5-0.9,0.4-2.2-0.6-2.7
	c-1.7-0.9-3-1.7-4.5-2.8c-0.8-0.6-2-0.4-2.6,0.4c-1.9,2.4-3.8,4.7-5.9,7C392.7,199.6,392.8,200.9,393.7,201.6L393.7,201.6z"/>
<path class="st39" d="M373.1,159.8c-2.6,3.4-5.4,9.1-5.8,16.8c-0.2,3.1,2.2,2.3,2.8,1.7c4-3.5,7-7.6,9.2-10.4
	c0.4-0.5,0.4-1.2,0.1-1.8c-1.3-2-2.6-4.1-3.9-6.1C375.1,159,373.8,158.9,373.1,159.8z"/>
<path class="st39" d="M399.6,156c-1.9-1.5-4.9-2.6-7.2-3c-1.8-0.3-3.2,1.1-1.5,3.1c1.5,1.8,4.1,4.6,5.7,6.4c1,1.2,2,1.1,2.7-0.2
	c0.4-0.8,1.1-2,1.5-2.9C401.3,158.4,400.5,156.6,399.6,156L399.6,156z"/>
<path class="st39" d="M409.8,172.8c-0.8-6.8-2.7-9.3-4.8-11.4c-0.9-0.9-2.5-1.9-3-0.8c-0.6,1.2-1.8,3.2-2,4.6
	c-0.1,0.7,0,1.4,0.5,1.9c1.7,1.8,5,5.5,6.8,7.2C408.1,175.2,410.1,174.9,409.8,172.8L409.8,172.8z"/>
<path class="st39" d="M396.7,165.5c-1.8-2.3-3.5-4.7-5.3-7.1c-0.9-1.2-2.7-1.1-3.4,0.2c-1.6,2.7-3.4,5.3-5.2,7.9
	c-0.5,0.7-0.5,1.7,0,2.4c1.7,2.4,3.5,4.8,5.3,7.1c0.8,1.1,2.5,1,3.3-0.1c2-2.6,3.8-5.3,5.5-8.1C397.3,167.1,397.2,166.1,396.7,165.5
	L396.7,165.5z"/>
<path class="st39" d="M403.7,189.8c1.3,0.9,2.3,1.8,3.6,2.6c1,0.6,1.9-0.4,2.3-1.6c0.8-2.8,1.4-7.3,1.2-10.4c-0.2-2.7-1.4-5-2.3-2.9
	c-1,2.3-3.8,7.6-5.3,9.7C402.7,188.1,402.9,189.2,403.7,189.8L403.7,189.8z"/>
<path class="st39" d="M406.3,176.1c-2-1.8-3.8-3.7-5.5-5.7c-0.8-1-2.3-0.9-3,0.2c-1.5,2.5-3.9,4.9-5.6,7.3c-0.5,0.7-0.5,1.7,0.2,2.4
	c1.9,2.1,4.6,4.7,6.7,6.6c0.8,0.7,2,0.3,2.7-0.6c1.7-2.4,3.5-5.3,4.9-7.9C407.1,177.6,406.9,176.7,406.3,176.1z"/>
<path class="st39" d="M385.4,152.9c-2.5,0-5.4,1.2-7.5,2.6c-1,0.7-1.8,2.1-1.2,3.2c0.8,1.3,1.6,2.6,2.4,3.9c0.9,1.4,2.9,1.7,3.8,0.4
	c1.4-2,3.9-5.9,5.2-8C388.6,154.1,387.6,152.8,385.4,152.9z"/>
<path class="st40" d="M467.1,170.4c1.2,4.1,3.4,8.6,4.4,11.1c-5.2-1.3-17.6-4.8-24.4-6.7c-0.6-3.9-1.2-6.1-1.9-9.6
	C452.1,166.5,460.6,168.8,467.1,170.4L467.1,170.4z"/>
<path class="st41" d="M438.9,217.5c0.7-10.3,4.9-33.3,8.2-42.7c7.2,1.7,17.3,4.7,24.4,6.7c-3.1,12.4-6,29.4-8.2,40.8
	C456.1,220.8,446.2,218.9,438.9,217.5z"/>
<path class="st42" d="M429.7,215.4c2.8-11.1,6.6-31,9.3-42.9c1.7-2,3.5-4.1,6.2-7.3c0.7,3.5,1.6,4.9,1.9,9.6
	c-2.4,10.5-5.7,29.8-8.2,42.7C435.3,217.4,433,216.7,429.7,215.4L429.7,215.4z"/>
<path class="st41" d="M429.7,215.4c2.8-11.1,6.6-31,9.3-42.9c1.7-2,3.5-4.1,6.2-7.3c-0.7,5.7-9.4,43.5-11.2,51.7
	C432.6,216.5,431.2,216,429.7,215.4z"/>
<path class="st41" d="M467.1,170.4c0-1.4,0.8-4,0.9-6.7c-5.2-1.8-14-4.2-21.3-5.4c-0.4,2-1.2,4.2-1.7,6.9
	C445.7,165.2,465.1,170,467.1,170.4L467.1,170.4z"/>
<path class="st27" d="M415.7,149.2c-0.6-0.2-1.3,0.5-1.6,1.1c-0.3,0.6-0.1,1-0.6,2c-0.1,0.4-0.2,0.5-0.4,0.5c-0.2,0-0.4-0.5-0.5-0.9
	c-0.2-1,0.4-1.4,0.2-2.2c0-0.2,0.4-0.7-0.9-1.3c-0.7-0.3-1.1-1.5-1.1-1.7c0-1.3,0.4-2.1,0.2-2.8c-0.1-0.5-1.4-0.4-1.5,0.1
	c-0.4,2.1,0.9,4.5,0.8,4.7c-1-0.5-1.4-1.9-2.3-2.3c-0.7-0.3-0.7,0.6-0.8,0.9c0,0.1,0,0.1,0,0.2c0.4,0.6,0.8,0.5,1.5,1.3
	c0.2,0.3,0.4,0.7,0.8,1.5c0.4,0.9,0.6,1.3,0.7,1.7c0.1,0.4,0.3,1.1,0.2,1.1c-0.1,0-0.3-0.5-0.8-1.2c-0.4-0.5-0.7-0.9-1.3-1.1
	c-0.7-0.3-1,0-1.3-0.3c-0.4-0.3-0.1-0.8-0.5-1.2c-0.3-0.3-1.3,0-1.2,0.4c0.2,1.9,2.8,2.5,2.3,2.9c-0.5,0.5-2.8-0.1-3.5-0.8
	c-0.6-0.5-1.8,0.3-1.3,1.1c0.3,0.6,2.5,0.5,2.9,0.8c0.3,0.3,0.7,0,1.9,0.1c0.5,0,0.8,0.1,1.1,0.2c1,0.3,1.6,1.1,1.7,1.3
	c0.1,0.2,0.3,0.5,0.6,1.2c0,0.1,0.3,0.7,0.7,1.6c0.3,0.9,1.2,2.6,0.9,2.6c-0.1,0-0.9-0.5-1.4-0.9c-0.7-0.6-1.1-2.1-1.3-2.2
	c-0.7-0.2-0.9,0.3-1.7,0.2c-0.5-0.1-0.9-0.4-1.3-0.8c-0.8-0.8-0.8-1.4-1.3-1.4c-0.6-0.1-1.3,0.6-1.2,1.1c0.1,0.4,1.8,1,1.9,1.9
	c0,0.3-2.1-0.7-2.5-0.3c-0.5,0.5-0.5,0.9-0.1,1.2c0.3,0.2,1.4,0,2,0.1c0.7,0.1,0.7,0.3,0.9,0.5c0.3,0.3,0.1,0.8,0.4,1.2
	c0.2,0.2,0.5,0.3,1.1,0.4c1.1,0.2,1.7,0.1,2.1,0.2c1,0.1,1.6,0.8,2.3,1.4c0.5,0.5,0.6,4.1,0.7,6c0.7,0.7,1.9,1.6,2.5,1.5
	c0-1.9,0-5.6-0.1-6.5c-0.2-1.6,0.1-1.8-0.1-3.6c-0.1-0.9-0.2-1.4-0.4-1.9c-0.2-0.5-0.4-0.7-0.4-1.2c0-0.2,0-0.4,0.4-1.3
	c0.5-1.2,0.6-1.1,0.6-1.5c0.1-0.4,0-0.3-0.2-1.6c-0.1-0.7-0.1-1-0.1-1.2c0.2-0.8,0.8-0.8,0.9-1.4C416.6,150,416.2,149.3,415.7,149.2
	L415.7,149.2z"/>
<path class="st26" d="M420.8,164.5c-2.9,2.9-4.1,6.2-4.2,6.8c0.6,0,2.5-0.1,3.1-0.7c0.7-2.2,1.9-4.6,2.9-5.2
	c0.8-0.5,0.7-0.7,1.3-0.9c0.6-0.2,0.7,0.3,2,0.3c0.7,0,1.5-0.3,2.4-0.6c0.2-0.1,1.6-0.6,1.5-1.2c0-0.4-0.7-0.9-1.3-0.8
	c-0.8,0.1-0.8,1-1.7,1.3c-0.5,0.2-1.8,0.2-1.6-1.1c0.1-0.6,0.7-0.4,1.7-0.7c0.8-0.2,1.4-0.9,1.8-0.9c1-0.1,1.2,0,2.7,0
	c2.1,0,2.6-0.2,2.8-0.3c0.3-0.2,1.2-0.6,1.5-1.5c0.1-0.6,0.1-1.3-0.3-1.5c-0.3-0.1-0.6,0.2-1.9,1c-1,0.6-1.5,0.8-1.9,0.9
	c-0.3,0.1-1.2,0.2-1.4-0.1c-0.2-0.4,0.2-1.1,0.7-1.6c0.5-0.4,0.8-0.3,1.8-0.8c0.8-0.4,0.7-0.5,1.5-0.9c0.6-0.3,0.8-0.3,2.2-0.8
	c1.9-0.7,2-0.8,2.1-1c0.2-0.6-0.6-1.6-1.6-2c-1.6-0.6-3.3,0.8-3.7,1.1c-0.2,0.2-0.7,0.7-1.6,1.7c-1.2,1.4-1.7,1.9-1.9,1.8
	c-0.2-0.1-0.2-0.6-0.1-1c0.2-0.7,0.9-0.8,1.2-1.5c0.2-0.5,0.3-1.3-0.1-1.6c-0.4-0.3-1.3,0.1-1.7,0.7c-0.4,0.6,0,1-0.5,1.7
	c-0.2,0.2-0.2,0.2-1,0.8c-0.6,0.5-0.9,0.7-1,0.9c-0.4,0.6,0.2,1,0.2,2.1c0,0.3-0.8,1.1-1.3,1.4c-0.7,0.4-1,0.5-1,0
	c-0.2-1.7,1.6-1.9,1.3-2.6c-0.2-0.5-1.1-0.8-1.6-0.5c-0.5,0.3-0.8,0.8-1.2,2.2c-0.2,0.9,0.1,1.8-0.3,2.5
	C422.3,162.2,422.1,163.2,420.8,164.5L420.8,164.5z"/>
<path class="st25" d="M426.3,150.7c-0.4-0.2-1.2,0.7-1.6,1.3c-0.5,0.8-0.4,1.1-0.9,1.6c-0.2,0.2-0.9,1-1.8,1c-0.1,0-0.7,0-0.9-0.4
	c-0.1-0.1-0.1-0.4,1.1-1.8c0.7-0.9,0.8-0.8,1.1-1.2c0.1-0.2,0.5-0.9,0.7-1.9c0.1-0.7,0-0.7,0.1-1.8c0.1-0.7,0.1-1.1,0.3-1.5
	c0.4-0.8,0.9-0.8,1.1-1.4c0.2-0.6,0-1.3-0.5-1.6c-0.7-0.4-2.2,0.5-2.8,1.7c-0.3,0.5-0.1,0.6-0.4,2.4c-0.3,1.7-0.4,2.5-0.8,3
	c-0.5,0.5-1,0.7-1.1,1.3c-0.1,0.5,0.2,0.9-0.1,1.1c-0.2,0.1-0.5,0.1-0.7,0c-0.3-0.3,0-0.9,0.3-2.2c0.6-2.1,0.5-2.5,0.4-2.7
	c-0.3-0.9-1.3-1.5-1.7-1.3c-0.4,0.2,0,1-0.1,2.7c-0.1,1.5-0.5,1.7-0.5,3.1c0,0.7,0,1.3,0.3,1.9c0.4,0.8,0.8,0.8,1,1.4
	c0.1,0.3,0,0.5-0.5,2.3c-0.4,1.3-0.5,1.4-0.6,1.9c-0.1,0.4-0.1,0.9-0.2,1.8c-0.1,1.2-2.9,8.9-3.1,9.2c0.2,1.1,3.2,1.3,3.3,0.7
	c0.1-0.5,1.3-9.1,1.8-9.9c0.4-0.6,0.5-0.4,1.2-1.3c0.6-0.7,0.9-1.1,1-1.6c0.2-0.6,0-0.7,0.3-1.3c0.1-0.2,0.3-0.6,0.6-0.9
	c0.4-0.4,0.7-0.4,1.2-0.7c0.2-0.1,0.9-0.5,1.5-1.1c0.2-0.2,1-1.1,1.1-2.4C426.6,151.9,426.7,150.8,426.3,150.7L426.3,150.7z"/>
<path class="st43" d="M405.8,174.3c0,1.5-0.2,3-0.6,3.2c-0.1,0.9-0.1,2.9,0.2,4.2c0.3,0.8,0.4,1.7,0.2,2.4c0.1,1.3,0.2,2.6,0.4,3.9
	c0.6,0.9,0.8,2.2,0.3,2.7c0.9,8.8,14.1,0.7,13.8-6.7C419.4,174.9,407.1,170.8,405.8,174.3L405.8,174.3z"/>
<path class="st44" d="M419.7,170.6c-1.9,0.8-4.4,0.1-6.3-1.2c-2.9,0-6.3,1.4-7.6,4.8c0.5,3.5,5.4,5.2,8.8,5.3
	c-3.1,0.9-7,0.2-9.4-2.1c-0.1,0.9-0.1,2.9,0.2,4.2c2.2,2.6,6.4,3,9.6,2.7c-2.9,1.6-6.6,1.3-9.4-0.3c0.1,1.3,0.2,2.6,0.4,3.9
	c2.3,2.4,5.9,3.7,9,2.5c-2.5,2-6.1,1.9-8.8,0.2c0.9,8.8,1.8,17.3,2.1,21c0.4,4.3,1.7,4.5,3.3,1c5.5-11.8,10.1-23.1,12.7-30.1
	C426.8,175.6,424,171.6,419.7,170.6L419.7,170.6z"/>
<path class="st45" d="M485.1,224.8l-2.3-4.1l-4.1,2.3l-2.3-4.1l-4.1,2.3l-2.3-4.1l-4.1,2.3l-2.3-4.1l-4.1,2.3l-2.3-4.1l-4.1,2.3
	l-2.3-4.1l-4.1,2.3l-2.3-4.1l-4.1,2.3l-2.3-4.1l-4.1,2.3l-2.3-4.1l-4.1,2.3l-2.3-4.1l-4.1,2.3l-2.3-4.1l-4.1,2.3l-2.4-4.2
	l-25.9,99.4l71.9,0.1l10.1-7.4l20.2-70.7L485.1,224.8z"/>
<path class="st46" d="M402.6,195.9l-4-2.4l-2.4,4l-4-2.4l-2.4,4l-4-2.4l-2.4,4l-4-2.4l-2.4,4l-4-2.4l-2.4,4l-4-2.4l-2.4,4l-4-2.4
	l-2.4,4l-4-2.4l-2.4,4l-4-2.4l-2.4,4l-4-2.4l-2.4,4l-4-2.4l-2.4,4l-4.1-2.5l24.2,89.4l78.9,0.3L405,191.8L402.6,195.9z"/>
<path class="st47" d="M442.4,195l-3.3-3.3l-3.3,3.3l-3.3-3.3l-3.3,3.3l-3.3-3.3l-3.3,3.3l-3.3-3.3l-3.3,3.3l-3.3-3.3l-3.3,3.3
	l-3.3-3.3l-3.3,3.3l-3.3-3.3l-3.3,3.3l-3.3-3.3l-3.3,3.3l-3.3-3.3l-3.3,3.3l-3.3-3.3l-3.3,3.3l-3.3-3.3L370,195l-3.4-3.4v109.5h79.2
	V191.6L442.4,195z"/>
<path class="st48" d="M398,238.3c1.5-1.1,2.5-3,2.2-5l-1.5-12.4c-0.3-2.6-12.5-9.9-12.7-11.6c-0.2-1.3-0.7-5.9-0.7-5.9l-11.5,1.4
	l0.7,5.9c0.2,1.7-9.8,11.7-9.5,14.3l1.5,12.4c0.2,2,1.6,3.6,3.4,4.3c0.9,0.4,1.2,2.9,0.4,3.5c-1.5,1.1-2.5,3-2.2,5l5.3,43.6
	c0.4,2.9,3,5,6,4.7l23.1-2.8c2.9-0.4,5-3,4.7-6l-5.3-43.6c-0.2-2-1.6-3.6-3.4-4.3C397.6,241.5,397.3,238.9,398,238.3z"/>
<path class="st49" d="M401.8,246.2c-0.2-2-1.6-3.6-3.4-4.3c-0.9-0.4-1.2-2.9-0.4-3.5c1.5-1.1,2.5-3,2.2-5l-33.7,4.1
	c0.2,2,1.6,3.6,3.4,4.3c0.9,0.4,1.2,3,0.4,3.5c-1.5,1.1-2.5,3-2.2,5L401.8,246.2z"/>
<path class="st50" d="M386.1,206.8c-0.2,0.2-11.9,1.6-12.2,1.5c-0.8-0.3-1.3-0.7-1.4-1.6l-0.7-5.9c-0.2-1.3,0.8-2.4,2-2.6l10-1.2
	c1.3-0.2,2.4,0.8,2.6,2l0.7,5.9C387.2,205.8,386.8,206.3,386.1,206.8z"/>
<path class="st51" d="M469,277.4l-6.4-10.1c-1.5-2.4-8.1-2.4-9.6,0l-2.1,3.2c-1.2,1.9-4,1.9-5.2,0l-2-3.2c-1.5-2.4-8.1-2.4-9.6,0
	l-2.1,3.2c-1.2,1.9-4,1.9-5.2,0l-2-3.2c-1.5-2.4-8.1-2.4-9.6,0l-2.1,3.2c-1.2,1.9-4,1.9-5.2,0l-2-3.2c-1.5-2.4-8.1-2.4-9.6,0
	l-2.1,3.2c-1.2,1.9-4,1.9-5.2,0l-2-3.2c-1.5-2.4-8.1-2.4-9.6,0l-6.4,10.1c-0.5,0.7-0.8,1.7-1,2.9c-0.3,1.9,1.2,3.5,3,3.5l93.9,0.2
	c1.9,0,3.4-1.7,3.1-3.5C469.8,279.1,469.5,278.1,469,277.4L469,277.4z"/>
<path class="st52" d="M369.9,283.6c0.1,1.6,0.5,3,1.1,4l6.4,10.1c1.5,2.4,8.1,2.4,9.6,0l2.5-3.9c1-1.6,3.4-1.6,4.4,0l2.5,3.9
	c1.5,2.4,8.1,2.4,9.6,0l2.5-3.9c1-1.6,3.4-1.6,4.4,0l2.5,3.9c1.5,2.4,8.1,2.4,9.6,0l2.5-3.9c1-1.6,3.4-1.6,4.4,0l2.5,3.9
	c1.5,2.4,8.1,2.4,9.6,0l2.5-3.9c1-1.6,3.4-1.6,4.4,0l2.5,3.9c1.5,2.4,8.1,2.4,9.6,0l6.4-10.1c0.6-1,1-2.4,1.1-4L369.9,283.6
	L369.9,283.6z"/>
<path class="st53" d="M469,287.7c0.6-1,1-2.4,1.1-4l-100.3-0.2c0.1,1.6,0.5,3,1.1,4L469,287.7L469,287.7z"/>
<path class="st45" d="M470.2,285.6l-100.4-0.2c-0.8,0-1.5-1.3-1.5-2.9c0-1.6,0.7-2.9,1.5-2.9l100.4,0.2c0.8,0,1.5,1.3,1.5,2.9
	C471.7,284.3,471.1,285.6,470.2,285.6z"/>
<path class="st54" d="M378.4,324c-7.4,0-13.4,6-13.4,13.4c0,7.4,6,13.4,13.4,13.4c7.4,0,13.4-6,13.4-13.4
	C391.9,330,385.9,324,378.4,324z"/>
<path class="st55" d="M370.5,317.2c0,0,2.3,19,2.3,20.2c0,3.1,2.5,5.7,5.6,5.7c3.1,0,5.7-2.5,5.7-5.7c0-1.3,2.3-20.2,2.3-20.2H370.5
	L370.5,317.2z"/>
<path class="st56" d="M386.4,317.2h-15.8c0,0,0.3,2.5,0.7,5.8h14.5C386.1,319.7,386.4,317.2,386.4,317.2L386.4,317.2z"/>
<path class="st54" d="M441.8,324c-7.4,0-13.4,6-13.4,13.4c0,7.4,6,13.4,13.4,13.4c7.4,0,13.4-6,13.4-13.4
	C455.3,330,449.3,324,441.8,324z"/>
<path class="st55" d="M433.9,317.2c0,0,2.3,19,2.3,20.2c0,3.1,2.5,5.7,5.6,5.7c3.1,0,5.7-2.5,5.7-5.7c0-1.3,2.3-20.2,2.3-20.2H433.9
	L433.9,317.2z"/>
<path class="st56" d="M449.7,317.2h-15.8c0,0,0.3,2.5,0.7,5.8h14.5C449.4,319.7,449.7,317.2,449.7,317.2L449.7,317.2z"/>
<path class="st54" d="M378.4,334.1c-1.8,0-3.3,1.5-3.3,3.3c0,1.8,1.5,3.3,3.3,3.3c1.8,0,3.3-1.5,3.3-3.3
	C381.7,335.6,380.3,334.1,378.4,334.1z"/>
<path class="st54" d="M441.8,334.1c-1.8,0-3.3,1.5-3.3,3.3c0,1.8,1.5,3.3,3.3,3.3c1.8,0,3.3-1.5,3.3-3.3
	C445.1,335.6,443.6,334.1,441.8,334.1z"/>
<path class="st57" d="M437,301.7c-0.1,0-0.1,0-0.2,0c-0.6-0.1-1.1-0.7-1-1.3l12.2-87.3c0.1-0.6,0.7-1.1,1.3-1c0.6,0.1,1.1,0.7,1,1.3
	l-12.2,87.3C438.1,301.3,437.5,301.7,437,301.7z"/>
<path class="st57" d="M395.3,301.7c-0.6,0-1.1-0.5-1.2-1.1l-6-87.3c0-0.7,0.4-1.2,1.1-1.3c0.7,0,1.2,0.4,1.3,1.1l6,87.3
	C396.5,301.1,396,301.7,395.3,301.7C395.3,301.7,395.3,301.7,395.3,301.7L395.3,301.7z"/>
<path class="st57" d="M381.7,301.7c-0.6,0-1.1-0.4-1.2-1l-12.1-87.3c-0.1-0.6,0.4-1.2,1-1.3c0.6-0.1,1.2,0.4,1.3,1l12.1,87.3
	c0.1,0.6-0.4,1.2-1,1.3C381.8,301.7,381.7,301.7,381.7,301.7L381.7,301.7z"/>
<path class="st57" d="M368.1,301.7c-0.6,0-1-0.4-1.2-1l-17.3-87.3c-0.1-0.6,0.3-1.3,0.9-1.4c0.6-0.1,1.3,0.3,1.4,0.9l17.3,87.3
	c0.1,0.6-0.3,1.3-0.9,1.4C368.3,301.7,368.2,301.7,368.1,301.7z"/>
<path class="st57" d="M409.1,301.7c-0.7,0-1.2-0.5-1.2-1.2v-87.3c0-0.7,0.5-1.2,1.2-1.2c0.6,0,1.2,0.5,1.2,1.2v87.3
	C410.3,301.2,409.8,301.7,409.1,301.7z"/>
<path class="st57" d="M423.1,301.7C423.1,301.7,423,301.7,423.1,301.7c-0.7-0.1-1.2-0.6-1.2-1.3l6.7-87.3c0.1-0.7,0.6-1.1,1.3-1.1
	c0.6,0.1,1.1,0.6,1.1,1.3l-6.7,87.3C424.2,301.3,423.7,301.7,423.1,301.7z"/>
<path class="st57" d="M450.9,301.7c-0.1,0-0.2,0-0.2,0c-0.6-0.1-1.1-0.8-0.9-1.4l18.1-87.3c0.1-0.6,0.8-1.1,1.4-0.9
	c0.6,0.1,1.1,0.8,0.9,1.4L452,300.8C451.9,301.4,451.4,301.8,450.9,301.7L450.9,301.7z"/>
<path class="st58" d="M491,213.9c-1.2-1.5-3-2.3-5.5-2.3H329.1c-1-3.6-1.7-6.2-2.1-7.3c-1-3.4-3.1-5.9-6.1-7.2
	c-8.9-3.8-29.3-12.3-29.5-12.4c-0.8-0.4-1.8,0-2.2,0.9c-0.4,0.8,0,1.8,0.9,2.2c0.2,0.1,20.6,8.6,29.4,12.4c2.1,0.9,3.6,2.6,4.2,5
	c0.7,2.6,3.5,12.5,7,25c7.3,26,18.3,65.4,19.9,70.8c3.6,12.2,9.8,18.1,18.8,18.1h92.1c0.9,0,1.7-0.7,1.7-1.7c0-0.9-0.7-1.7-1.7-1.7
	h-92.1c-7,0-11.8-4.3-14.9-13.6h101c10.6,0,16.1-9.8,17.6-15l18.1-64C491.9,221.3,493.2,216.8,491,213.9L491,213.9z M470,286.3
	c-1.2,4.4-5.8,12.6-14.4,12.6h-102c-1.6-5.6-6.6-23.2-11.7-41.6h136.3L470,286.3z M488.1,222.3l-9.1,32h-138c-2.4-8.7-4.9-17.4-7-25
	c-1.5-5.4-2.9-10.3-4-14.4h155.4c1.4,0,2.4,0.3,2.9,1C489.5,217.5,488.5,221,488.1,222.3L488.1,222.3z"/>
<path class="st34" d="M291.2,183.7h-25.1c-1.4,0-2.6,1.1-2.6,2.6c0,1.4,1.1,2.6,2.6,2.6h25.1c1.4,0,2.6-1.2,2.6-2.6
	S292.7,183.7,291.2,183.7z"/>
<g id="chat-bubble-1" style="transform-origin: 247.592px 265.3435px">
	<path class="st59" d="M207.4,234.7h36.5c2,0,3.7,1.7,3.7,3.7v16.9c0,2-1.7,3.7-3.7,3.7h-4c-0.1,1.5-0.1,4.2,1.4,6.3
		c0,0-9.8-0.9-12.4-6.3h-21.5c-2,0-3.7-1.7-3.7-3.7v-16.9C203.6,236.3,205.3,234.7,207.4,234.7z"/>
	<path class="st17" d="M209.2,241.7H242c0.5,0,0.8-0.4,0.8-0.8c0-0.5-0.4-0.8-0.8-0.8h-32.8c-0.5,0-0.8,0.4-0.8,0.8
		C208.4,241.4,208.8,241.7,209.2,241.7z"/>
	<path class="st17" d="M209.2,245.8H242c0.5,0,0.8-0.4,0.8-0.8c0-0.5-0.4-0.8-0.8-0.8h-32.8c-0.5,0-0.8,0.4-0.8,0.8
		C208.4,245.4,208.8,245.8,209.2,245.8z"/>
	<path class="st17" d="M209.2,249.8H242c0.5,0,0.8-0.4,0.8-0.8c0-0.5-0.4-0.8-0.8-0.8h-32.8c-0.5,0-0.8,0.4-0.8,0.8
		C208.4,249.4,208.8,249.8,209.2,249.8z"/>
	<path class="st17" d="M209.2,253.9H242c0.5,0,0.8-0.4,0.8-0.8c0-0.5-0.4-0.8-0.8-0.8h-32.8c-0.5,0-0.8,0.4-0.8,0.8
		C208.4,253.5,208.8,253.9,209.2,253.9z"/>
</g>
<path class="st17" d="M140.3,163.4c-1.2,0-2.2-0.2-3.1-0.7c-0.9-0.5-1.6-1.2-2.1-2.2c-0.5-1-0.7-2.2-0.7-3.6c0-1.4,0.3-2.7,0.8-3.7
	c0.5-1,1.3-1.8,2.2-2.4c0.9-0.6,2.1-0.8,3.3-0.8c1.2,0,2.3,0.2,3,0.7c0.8,0.5,1.4,1.2,1.7,2c0.4,0.8,0.6,1.8,0.6,2.9
	c0,0.3,0,0.5,0,0.8c0,0.3,0,0.6-0.1,0.9h-8.8v-2h5.9l-0.4,0.3c0-0.6,0-1.2-0.2-1.7c-0.1-0.5-0.4-0.9-0.7-1.2
	c-0.3-0.3-0.7-0.4-1.3-0.4c-0.6,0-1.1,0.2-1.5,0.6c-0.4,0.4-0.7,0.8-0.8,1.4c-0.2,0.6-0.2,1.3-0.2,2c0,0.8,0.1,1.6,0.3,2.3
	s0.5,1.2,1,1.6c0.5,0.4,1.1,0.6,1.9,0.6c0.5,0,1.1-0.1,1.8-0.3c0.6-0.2,1.3-0.5,2-0.9l1.1,1.8c-0.9,0.6-1.9,1.1-2.9,1.4
	C142.2,163.3,141.2,163.4,140.3,163.4z M153.5,163.1l-5.1-15.1l0.8,0.6l-2.2-0.6v-1.7l7.1-0.1v1.7l-2.4,0.7l0.4-0.8l3.7,12.4h-0.5
	l4-12.2l0.3,0.7l-2.2-0.6v-1.7l6.4-0.1v1.7l-2.2,0.6l0.8-0.6l-5.4,15.1H153.5z M169.6,150c1.9,0,3.4,0.6,4.4,1.7s1.6,2.7,1.6,4.8
	c0,1.4-0.3,2.7-0.8,3.7c-0.5,1-1.2,1.8-2.2,2.4c-1,0.6-2.1,0.8-3.5,0.8c-1.9,0-3.4-0.6-4.4-1.7c-1-1.1-1.5-2.7-1.5-4.8
	c0-1.4,0.2-2.7,0.7-3.7c0.5-1,1.2-1.8,2.2-2.4S168.3,150,169.6,150z M169.4,152.4c-0.9,0-1.6,0.4-2,1.1c-0.4,0.7-0.7,1.8-0.7,3.3
	c0,1.5,0.2,2.6,0.6,3.2c0.4,0.7,1.1,1,2,1c0.6,0,1.2-0.2,1.6-0.5c0.4-0.3,0.7-0.8,0.9-1.5c0.2-0.7,0.3-1.5,0.3-2.4
	c0-1.5-0.2-2.5-0.7-3.2C171,152.8,170.3,152.4,169.4,152.4z M181.9,163.4c-1.1,0-2-0.3-2.7-1c-0.7-0.7-1.1-1.8-1.1-3.2v-7l0.3,0.5
	l-1.9-0.6v-1.7l4.9-0.2v8.4c0,0.8,0.2,1.3,0.5,1.7c0.3,0.4,0.8,0.5,1.3,0.5c0.4,0,0.9-0.1,1.4-0.3c0.5-0.2,1-0.6,1.6-1.1l-0.2,0.6
	v-7.9l0.3,0.6l-1.9-0.6v-1.7l4.9-0.2v11.1l-0.4-0.6l2,0.6v1.7l-4.2,0.2l-0.5-2.4l0.5,0.2c-0.8,0.8-1.6,1.3-2.5,1.7
	C183.5,163.2,182.7,163.4,181.9,163.4z M198,163.4c-1.1,0-2.1-0.3-3-0.8c-0.9-0.5-1.6-1.3-2.1-2.3c-0.5-1-0.8-2.2-0.8-3.6
	c0-1.3,0.2-2.3,0.6-3.2c0.4-0.9,0.9-1.6,1.5-2.1c0.6-0.5,1.3-0.9,2.1-1.2c0.8-0.2,1.6-0.4,2.4-0.4c0.8,0,1.5,0.1,2.3,0.3
	c0.8,0.2,1.4,0.4,1.9,0.6l-0.1,3.5h-2.2l-0.4-2l0.3,0.2c-0.2-0.1-0.5-0.2-0.9-0.2c-0.3,0-0.6-0.1-0.9-0.1c-0.7,0-1.3,0.2-1.7,0.5
	c-0.4,0.3-0.8,0.8-1,1.5c-0.2,0.6-0.3,1.4-0.3,2.2c0,0.9,0.1,1.7,0.4,2.4c0.3,0.6,0.6,1.1,1.1,1.5c0.5,0.3,1,0.5,1.7,0.5
	c0.5,0,1-0.1,1.6-0.3c0.6-0.2,1.2-0.5,1.8-0.9l1.1,1.7c-0.9,0.7-1.8,1.2-2.7,1.5C199.8,163.2,198.9,163.4,198,163.4z M204.1,163.1
	v-1.7l2-0.6l-0.4,0.5v-14.9l0.4,0.5l-2-0.6v-1.7l4.9-0.2v8l-0.7-0.2c0.8-0.8,1.6-1.4,2.4-1.7c0.9-0.4,1.7-0.6,2.5-0.6
	c0.7,0,1.4,0.2,1.9,0.5s1,0.8,1.3,1.4c0.3,0.6,0.5,1.3,0.5,2.3v7.2l-0.3-0.5l1.9,0.6v1.7h-6.4v-1.7l1.8-0.5l-0.4,0.5v-6.6
	c0-0.8-0.2-1.3-0.5-1.7c-0.4-0.4-0.8-0.6-1.4-0.6c-0.4,0-0.9,0.1-1.4,0.4c-0.5,0.2-1,0.6-1.5,1.1l0.2-0.5v7.9l-0.3-0.5l1.8,0.5v1.7
	H204.1z M225.4,163.4c-1.2,0-2.2-0.2-3.1-0.7c-0.9-0.5-1.6-1.2-2.1-2.2c-0.5-1-0.7-2.2-0.7-3.6c0-1.4,0.3-2.7,0.8-3.7
	c0.5-1,1.3-1.8,2.2-2.4s2.1-0.8,3.3-0.8c1.2,0,2.3,0.2,3,0.7c0.8,0.5,1.4,1.2,1.7,2c0.4,0.8,0.6,1.8,0.6,2.9c0,0.3,0,0.5,0,0.8
	c0,0.3,0,0.6-0.1,0.9h-8.8v-2h5.9l-0.4,0.3c0-0.6,0-1.2-0.2-1.7c-0.1-0.5-0.4-0.9-0.7-1.2c-0.3-0.3-0.7-0.4-1.3-0.4
	c-0.6,0-1.1,0.2-1.5,0.6c-0.4,0.4-0.7,0.8-0.8,1.4c-0.2,0.6-0.2,1.3-0.2,2c0,0.8,0.1,1.6,0.3,2.3c0.2,0.7,0.5,1.2,1,1.6
	c0.5,0.4,1.1,0.6,1.9,0.6c0.5,0,1.1-0.1,1.8-0.3c0.6-0.2,1.3-0.5,2-0.9l1.1,1.8c-0.9,0.6-1.9,1.1-2.9,1.4
	C227.3,163.3,226.3,163.4,225.4,163.4z M232.7,163.1v-1.7l1.9-0.6l-0.3,0.5v-9.2l0.4,0.6l-2-0.6v-1.7l4.2-0.2l0.4,2.3l-0.4-0.1
	c0.7-0.8,1.4-1.3,2.1-1.7c0.7-0.4,1.5-0.6,2.3-0.6c0.5,0,1.1,0.1,1.6,0.2l-0.2,4.4h-1.9l-0.4-2.6l0.3,0.6c-0.1,0-0.2-0.1-0.3-0.1
	c-0.1,0-0.2,0-0.3,0c-0.5,0-1,0.2-1.5,0.5c-0.5,0.3-0.9,0.7-1.2,1.2l0.3-0.9v8l-0.4-0.5l2.4,0.6v1.7H232.7z"/>
<g id="circle-semi-line" style="transform-origin: 187.7284px 126.0941px;">
	
		<linearGradient id="SVGID_00000095298840932565905280000012433062859281845889_" gradientUnits="userSpaceOnUse" x1="89.8739" y1="301.6662" x2="285.583" y2="301.6662" gradientTransform="matrix(1 0 0 -1 0 379.89)">
		<stop  offset="0" style="stop-color:#FF3408"/>
		<stop  offset="0.54" style="stop-color:#F6352E"/>
		<stop  offset="1" style="stop-color:#ED3652"/>
	</linearGradient>
	
		<path style="fill:none;stroke:url(#SVGID_00000095298840932565905280000012433062859281845889_);stroke-linecap:round;stroke-linejoin:round;" d="
		M91.1,127c-0.2-12.7,2.2-25.4,6.9-37.2c4.8-11.8,11.9-22.6,20.9-31.7c9-9.1,19.7-16.3,31.5-21.2s24.5-7.5,37.3-7.5
		c12.8,0,25.5,2.5,37.3,7.5c11.8,4.9,22.6,12.1,31.5,21.2c9,9.1,16.1,19.9,20.9,31.7c4.8,11.8,7.1,24.5,6.9,37.2"/>
	<rect x="91" y="29.4" class="st61" width="193.4" height="193.4"/>
</g>
</svg>
